# xmcd CD database file
#
# Track frame offsets:
#	183
#	15940
#	58678
#	83375
#	103998
#	123800
#	152593
#	198825
#	222718
#	272865
#
# Disc length: 3899 seconds
#
# Revision: 5
# Processed by: cddbd v1.5.2PL0 Copyright (c) Steve Scherf et al.
# Submitted via: CDex 1.51
#
DISCID=7f0f390a
DTITLE=Albert King - Chicago 1978
DYEAR=2001
DGENRE=Blues
TTITLE0=King's Bounce (Instrumental)
TTITLE1=Stormy Monday Blues
TTITLE2=Born Under A Bad Sign
TTITLE3=The Very Thought Of You
TTITLE4=Your'e My Woman, I'm Your Mate
TTITLE5=Tired As A Man Can Be
TTITLE6=Blues At Sunrise
TTITLE7=Feel Like Breakin' Up Somebody's Home
TTITLE8=Please Come Back To Me
TTITLE9=I'll Play The Blues For You
EXTD=YEAR: 2001
EXTT0=
EXTT1=
EXTT2=
EXTT3=
EXTT4=
EXTT5=
EXTT6=
EXTT7=
EXTT8=
EXTT9=
PLAYORDER=
